<svg xmlns="http://www.w3.org/2000/svg" width="512" height="512" viewBox="0 0 512 512">
  <rect width="512" height="512" rx="80" fill="#1A1A1A"/>
  <g transform="translate(256,256)">
    <!-- Outer circle -->
    <circle cx="0" cy="0" r="180" fill="none" stroke="#D4281E" stroke-width="12"/>
    <!-- Hour markers -->
    <circle cx="0" cy="-194" r="9" fill="#D4281E"/>
    <circle cx="97" cy="-168" r="9" fill="#D4281E"/>
    <circle cx="168" cy="-97" r="9" fill="#D4281E"/>
    <circle cx="194" cy="0" r="9" fill="#D4281E"/>
    <circle cx="168" cy="97" r="9" fill="#D4281E"/>
    <circle cx="97" cy="168" r="9" fill="#D4281E"/>
    <circle cx="0" cy="194" r="9" fill="#D4281E"/>
    <circle cx="-97" cy="168" r="9" fill="#D4281E"/>
    <circle cx="-168" cy="97" r="9" fill="#D4281E"/>
    <circle cx="-194" cy="0" r="9" fill="#D4281E"/>
    <circle cx="-168" cy="-97" r="9" fill="#D4281E"/>
    <circle cx="-97" cy="-168" r="9" fill="#D4281E"/>
    <!-- Balance arms -->
    <line x1="0" y1="0" x2="0" y2="-170" stroke="#D4281E" stroke-width="12" stroke-linecap="round"/>
    <line x1="0" y1="0" x2="148" y2="85" stroke="#D4281E" stroke-width="12" stroke-linecap="round"/>
    <line x1="0" y1="0" x2="-148" y2="85" stroke="#D4281E" stroke-width="12" stroke-linecap="round"/>
    <!-- Center hub -->
    <circle cx="0" cy="0" r="22" fill="#D4281E"/>
  </g>
</svg>
